<?xml version="1.0" standalone="no"?>
<!DOCTYPE svg PUBLIC "-//W3C//DTD SVG 20010904//EN"
 "http://www.w3.org/TR/2001/REC-SVG-20010904/DTD/svg10.dtd">
<svg version="1.0" xmlns="http://www.w3.org/2000/svg"
 width="256.000000pt" height="256.000000pt" viewBox="0 0 256.000000 256.000000"
 preserveAspectRatio="xMidYMid meet">
<metadata>
Created by potrace 1.11, written by Peter Selinger 2001-2013
</metadata>
<g transform="translate(0.000000,256.000000) scale(0.100000,-0.100000)"
fill="#000000" stroke="none">
<path d="M2376 2154 c-115 -112 -202 -312 -190 -441 1 -15 5 -60 8 -100 7 -87
51 -213 106 -300 22 -35 40 -66 40 -69 0 -3 9 -17 20 -33 12 -15 21 -36 22
-47 1 -17 -8 -176 -17 -314 -9 -121 -18 -308 -19 -364 -1 -57 1 -61 33 -83 44
-30 98 -30 142 0 l34 23 -1 134 c0 115 -7 416 -19 850 -2 58 -6 227 -10 375
-10 386 -9 372 -30 395 -30 33 -66 26 -119 -26z"/>
<path d="M197 2159 l-27 -20 -2 -211 c-3 -193 -5 -211 -21 -214 -16 -2 -17 12
-16 202 1 183 -1 207 -17 225 -21 24 -65 25 -94 1 -21 -17 -21 -21 -18 -277
l3 -260 27 -47 c18 -29 45 -57 75 -75 57 -34 138 -73 154 -73 8 0 9 -40 5
-137 -4 -76 -9 -190 -11 -253 -3 -63 -7 -151 -10 -195 -2 -44 -7 -157 -11
-252 l-6 -171 27 -18 c40 -26 113 -29 155 -6 l35 19 -1 74 c-2 66 -9 252 -19
459 -17 353 -21 478 -14 482 2 2 27 14 54 28 65 32 121 83 148 134 20 38 22
57 24 286 2 135 0 255 -2 267 -12 53 -92 66 -117 20 -7 -14 -12 -95 -12 -226
-1 -186 -3 -204 -18 -207 -17 -2 -18 13 -18 206 0 193 -1 209 -20 233 -16 20
-27 25 -53 21 -33 -4 -56 -26 -58 -53 0 -9 -1 -104 -2 -211 -2 -177 -4 -195
-19 -198 -17 -3 -18 12 -18 212 l0 215 -26 20 c-33 26 -45 26 -77 0z"/>
<path d="M1290 2017 c-3 -3 -23 -7 -45 -11 -239 -34 -476 -234 -564 -476 -34
-94 -43 -142 -46 -239 -5 -207 71 -403 212 -548 315 -322 851 -296 1128 55 55
68 119 194 141 277 26 98 28 266 3 364 -45 178 -130 311 -269 423 -124 98
-261 147 -435 155 -66 3 -122 3 -125 0z m251 -131 c224 -56 408 -239 465 -464
46 -185 2 -391 -117 -543 -56 -71 -65 -79 -123 -123 -188 -142 -444 -164 -664
-56 -264 130 -401 423 -335 715 49 219 247 422 462 471 105 24 214 24 312 0z"/>
<path d="M1302 1854 c-99 -17 -162 -39 -230 -83 -170 -110 -269 -283 -277
-481 -6 -167 51 -317 165 -430 87 -87 132 -116 236 -152 127 -44 262 -43 389
1 409 144 528 669 221 975 -136 136 -325 200 -504 170z"/>
</g>
</svg>
